M48
;Layer_Color=9474304
;FILE_FORMAT=2:4
METRIC,LZ
;TYPE=PLATED
T1F00S00C0.2000
T2F00S00C0.4000
T4F00S00C0.7112
T5F00S00C1.0160
T6F00S00C1.3000
T7F00S00C3.0000
T8F00S00C3.1750
;TYPE=NON_PLATED
T10F00S00C0.6750
%
T01
X84087Y758475
X85922
X850045Y7493
X868395
X87757Y758475
Y776825
X868395Y76765
Y786
X850045
X85922Y776825
X850045Y76765
X84087Y776825
T02
X93153Y2848
X93853Y2888
Y2968
Y3048
X93153Y3008
Y3088
Y3168
Y3248
X93853Y3288
Y3208
Y3368
X93153Y3408
T04
X73914Y29591
X82677Y28321
X83439Y34798
X83566Y37084
X87376Y38608
X87757Y32131
X89281Y33147
X89408Y31115
X91313Y41529
X86233Y44323
X87122Y4826
X84201Y48514
X84963Y54356
X87503Y52578
X88138Y60198
X8509
X97663Y54102
X98933Y50546
X9906Y4572
X71755Y42672
X72517Y40005
X72898Y56642
X71247Y67183
X62484Y6477
X71374Y84709
X73025Y98298
X9017
T05
X32131Y29464
X34671
X37211
X39751
X42291
X44831
X47371
X49911
X52451
X54991
X57531
X60071
X62611
X65151
X52451Y102612
X49911
X47371
X44831
T06
X86106Y28829
X98679Y39243
X8255Y52832
X72263Y53975
T07
X29591Y24384
X86741Y24257
X29718Y108077
X98171Y108712
T08
X30257Y34352
X66977
X30257Y101612
X66977
T10
X92503Y2768
M30
