M48
;Layer_Color=9474304
;FILE_FORMAT=2:4
METRIC,LZ
;TYPE=PLATED
T1F00S00C0.4000
T3F00S00C0.7100
T4F00S00C0.7112
T5F00S00C0.8000
T6F00S00C0.8300
T7F00S00C0.9000
T8F00S00C1.3000
T9F00S00C1.5000
T10F00S00C2.5000
;TYPE=NON_PLATED
T12F00S00C0.6750
%
T01
X29223Y32347
X30023
X30823
X30423Y33047
X31223
X32023
X32823
X32423Y32347
X33223
X34023
X34423Y33047
X28823
T03
X63754Y90043
X66294
X68834
T04
X42291Y35814
X62865Y35052
X77597Y35433
X81788Y52324
X84201Y51689
X9017Y5207
X8128Y74676
X73533Y77089
X63373Y76454
X58293Y78994
X47117Y73025
X40132Y79121
X52832Y64262
X5334Y50292
X6477Y61087
X39624Y54229
X36576Y75819
X32639Y78232
X28575Y71501
X2667Y81534
X35306Y82042
X36068Y80391
X34798Y8763
Y89281
X4445Y92329
X4826Y85852
X51054Y85471
X53467Y8128
X61087
X60706Y83947
X59817Y96774
X7366Y89027
X77597Y79383
X81788Y83185
Y85852
X81534Y88773
X81661Y91059
X81534Y93472
X83693Y95377
X8636Y95504
X9017Y95377
X89789Y84709
X85852Y84836
X85598Y82169
X85725Y79883
X89789Y79375
T05
X7493Y36381
Y45661
X59182Y62289
Y71569
X43053Y59123
Y49843
T06
X70612Y84178
X71882
X73152
T07
X87122Y28194
X89662
Y30734
X87122
Y33274
X89662
Y35814
X87122
Y38354
X89662
T08
X46482Y67818
X53467Y71628
X61341Y53721
X37465Y4699
X28448Y67564
X28575Y75057
T09
X43561Y295651
X48641
X53721
X66675Y29555
X71755
X77343Y29083
X82423
X29083Y45339
Y50419
X27868Y91749
X37918
Y101799
X27868
X32893Y96774
X4445Y98806
X4953
X5461
X65913Y98933
X70993
X76073
T10
X88646Y44069
X28067Y39751
X28448Y86233
X884526Y1002409
T12
X28023Y33697
M30
